<svg xmlns="http://www.w3.org/2000/svg" width="1100" height="290" viewBox="0 0 1100 290" role="img"><title>Nutricomp — Cardápio digital e pedidos para WhatsApp</title><defs><pattern id="g" width="28" height="28" patternUnits="userSpaceOnUse"><path d="M28 0H0V28" fill="none" stroke="#32e64f" stroke-opacity=".05"/></pattern></defs><rect x="1" y="1" width="1098" height="288" rx="16" fill="#030a06" stroke="#174822"/><style>.binary-rise{animation:binaryUp 16s linear infinite}@keyframes binaryUp{from{transform:translateY(0)}to{transform:translateY(-240px)}}@media(prefers-reduced-motion:reduce){.binary-rise{animation:none}}</style><g aria-hidden="true" fill="#32e64f" font-family="Consolas,monospace" font-size="13" opacity=".085"><g class="binary-rise" style="animation-delay:-0s"><text x="14" y="-240">0</text><text x="14" y="-220">1</text><text x="14" y="-200">0</text><text x="14" y="-180">1</text><text x="14" y="-160">0</text><text x="14" y="-140">1</text><text x="14" y="-120">0</text><text x="14" y="-100">1</text><text x="14" y="-80">0</text><text x="14" y="-60">1</text><text x="14" y="-40">0</text><text x="14" y="-20">1</text><text x="14" y="0">0</text><text x="14" y="20">1</text><text x="14" y="40">0</text><text x="14" y="60">1</text><text x="14" y="80">0</text><text x="14" y="100">1</text><text x="14" y="120">0</text><text x="14" y="140">1</text><text x="14" y="160">0</text><text x="14" y="180">1</text><text x="14" y="200">0</text><text x="14" y="220">1</text><text x="14" y="240">0</text><text x="14" y="260">1</text><text x="14" y="280">0</text><text x="14" y="300">1</text><text x="14" y="320">0</text><text x="14" y="340">1</text><text x="14" y="360">0</text><text x="14" y="380">1</text><text x="14" y="400">0</text><text x="14" y="420">1</text><text x="14" y="440">0</text><text x="14" y="460">1</text><text x="14" y="480">0</text><text x="14" y="500">1</text><text x="14" y="520">0</text><text x="14" y="540">1</text><text x="14" y="560">0</text><text x="14" y="580">1</text><text x="14" y="600">0</text><text x="14" y="620">1</text><text x="14" y="640">0</text><text x="14" y="660">1</text><text x="14" y="680">0</text><text x="14" y="700">1</text><text x="14" y="720">0</text><text x="14" y="740">1</text><text x="14" y="760">0</text></g><g class="binary-rise" style="animation-delay:-1s"><text x="52" y="-240">1</text><text x="52" y="-220">0</text><text x="52" y="-200">1</text><text x="52" y="-180">0</text><text x="52" y="-160">1</text><text x="52" y="-140">0</text><text x="52" y="-120">1</text><text x="52" y="-100">0</text><text x="52" y="-80">1</text><text x="52" y="-60">0</text><text x="52" y="-40">1</text><text x="52" y="-20">0</text><text x="52" y="0">1</text><text x="52" y="20">0</text><text x="52" y="40">1</text><text x="52" y="60">0</text><text x="52" y="80">1</text><text x="52" y="100">0</text><text x="52" y="120">1</text><text x="52" y="140">0</text><text x="52" y="160">1</text><text x="52" y="180">0</text><text x="52" y="200">1</text><text x="52" y="220">0</text><text x="52" y="240">1</text><text x="52" y="260">0</text><text x="52" y="280">1</text><text x="52" y="300">0</text><text x="52" y="320">1</text><text x="52" y="340">0</text><text x="52" y="360">1</text><text x="52" y="380">0</text><text x="52" y="400">1</text><text x="52" y="420">0</text><text x="52" y="440">1</text><text x="52" y="460">0</text><text x="52" y="480">1</text><text x="52" y="500">0</text><text x="52" y="520">1</text><text x="52" y="540">0</text><text x="52" y="560">1</text><text x="52" y="580">0</text><text x="52" y="600">1</text><text x="52" y="620">0</text><text x="52" y="640">1</text><text x="52" y="660">0</text><text x="52" y="680">1</text><text x="52" y="700">0</text><text x="52" y="720">1</text><text x="52" y="740">0</text><text x="52" y="760">1</text></g><g class="binary-rise" style="animation-delay:-2s"><text x="90" y="-240">0</text><text x="90" y="-220">1</text><text x="90" y="-200">0</text><text x="90" y="-180">1</text><text x="90" y="-160">0</text><text x="90" y="-140">1</text><text x="90" y="-120">0</text><text x="90" y="-100">1</text><text x="90" y="-80">0</text><text x="90" y="-60">1</text><text x="90" y="-40">0</text><text x="90" y="-20">1</text><text x="90" y="0">0</text><text x="90" y="20">1</text><text x="90" y="40">0</text><text x="90" y="60">1</text><text x="90" y="80">0</text><text x="90" y="100">1</text><text x="90" y="120">0</text><text x="90" y="140">1</text><text x="90" y="160">0</text><text x="90" y="180">1</text><text x="90" y="200">0</text><text x="90" y="220">1</text><text x="90" y="240">0</text><text x="90" y="260">1</text><text x="90" y="280">0</text><text x="90" y="300">1</text><text x="90" y="320">0</text><text x="90" y="340">1</text><text x="90" y="360">0</text><text x="90" y="380">1</text><text x="90" y="400">0</text><text x="90" y="420">1</text><text x="90" y="440">0</text><text x="90" y="460">1</text><text x="90" y="480">0</text><text x="90" y="500">1</text><text x="90" y="520">0</text><text x="90" y="540">1</text><text x="90" y="560">0</text><text x="90" y="580">1</text><text x="90" y="600">0</text><text x="90" y="620">1</text><text x="90" y="640">0</text><text x="90" y="660">1</text><text x="90" y="680">0</text><text x="90" y="700">1</text><text x="90" y="720">0</text><text x="90" y="740">1</text><text x="90" y="760">0</text></g><g class="binary-rise" style="animation-delay:-3s"><text x="128" y="-240">1</text><text x="128" y="-220">0</text><text x="128" y="-200">1</text><text x="128" y="-180">0</text><text x="128" y="-160">1</text><text x="128" y="-140">0</text><text x="128" y="-120">1</text><text x="128" y="-100">0</text><text x="128" y="-80">1</text><text x="128" y="-60">0</text><text x="128" y="-40">1</text><text x="128" y="-20">0</text><text x="128" y="0">1</text><text x="128" y="20">0</text><text x="128" y="40">1</text><text x="128" y="60">0</text><text x="128" y="80">1</text><text x="128" y="100">0</text><text x="128" y="120">1</text><text x="128" y="140">0</text><text x="128" y="160">1</text><text x="128" y="180">0</text><text x="128" y="200">1</text><text x="128" y="220">0</text><text x="128" y="240">1</text><text x="128" y="260">0</text><text x="128" y="280">1</text><text x="128" y="300">0</text><text x="128" y="320">1</text><text x="128" y="340">0</text><text x="128" y="360">1</text><text x="128" y="380">0</text><text x="128" y="400">1</text><text x="128" y="420">0</text><text x="128" y="440">1</text><text x="128" y="460">0</text><text x="128" y="480">1</text><text x="128" y="500">0</text><text x="128" y="520">1</text><text x="128" y="540">0</text><text x="128" y="560">1</text><text x="128" y="580">0</text><text x="128" y="600">1</text><text x="128" y="620">0</text><text x="128" y="640">1</text><text x="128" y="660">0</text><text x="128" y="680">1</text><text x="128" y="700">0</text><text x="128" y="720">1</text><text x="128" y="740">0</text><text x="128" y="760">1</text></g><g class="binary-rise" style="animation-delay:-4s"><text x="166" y="-240">0</text><text x="166" y="-220">1</text><text x="166" y="-200">0</text><text x="166" y="-180">1</text><text x="166" y="-160">0</text><text x="166" y="-140">1</text><text x="166" y="-120">0</text><text x="166" y="-100">1</text><text x="166" y="-80">0</text><text x="166" y="-60">1</text><text x="166" y="-40">0</text><text x="166" y="-20">1</text><text x="166" y="0">0</text><text x="166" y="20">1</text><text x="166" y="40">0</text><text x="166" y="60">1</text><text x="166" y="80">0</text><text x="166" y="100">1</text><text x="166" y="120">0</text><text x="166" y="140">1</text><text x="166" y="160">0</text><text x="166" y="180">1</text><text x="166" y="200">0</text><text x="166" y="220">1</text><text x="166" y="240">0</text><text x="166" y="260">1</text><text x="166" y="280">0</text><text x="166" y="300">1</text><text x="166" y="320">0</text><text x="166" y="340">1</text><text x="166" y="360">0</text><text x="166" y="380">1</text><text x="166" y="400">0</text><text x="166" y="420">1</text><text x="166" y="440">0</text><text x="166" y="460">1</text><text x="166" y="480">0</text><text x="166" y="500">1</text><text x="166" y="520">0</text><text x="166" y="540">1</text><text x="166" y="560">0</text><text x="166" y="580">1</text><text x="166" y="600">0</text><text x="166" y="620">1</text><text x="166" y="640">0</text><text x="166" y="660">1</text><text x="166" y="680">0</text><text x="166" y="700">1</text><text x="166" y="720">0</text><text x="166" y="740">1</text><text x="166" y="760">0</text></g><g class="binary-rise" style="animation-delay:-5s"><text x="204" y="-240">1</text><text x="204" y="-220">0</text><text x="204" y="-200">1</text><text x="204" y="-180">0</text><text x="204" y="-160">1</text><text x="204" y="-140">0</text><text x="204" y="-120">1</text><text x="204" y="-100">0</text><text x="204" y="-80">1</text><text x="204" y="-60">0</text><text x="204" y="-40">1</text><text x="204" y="-20">0</text><text x="204" y="0">1</text><text x="204" y="20">0</text><text x="204" y="40">1</text><text x="204" y="60">0</text><text x="204" y="80">1</text><text x="204" y="100">0</text><text x="204" y="120">1</text><text x="204" y="140">0</text><text x="204" y="160">1</text><text x="204" y="180">0</text><text x="204" y="200">1</text><text x="204" y="220">0</text><text x="204" y="240">1</text><text x="204" y="260">0</text><text x="204" y="280">1</text><text x="204" y="300">0</text><text x="204" y="320">1</text><text x="204" y="340">0</text><text x="204" y="360">1</text><text x="204" y="380">0</text><text x="204" y="400">1</text><text x="204" y="420">0</text><text x="204" y="440">1</text><text x="204" y="460">0</text><text x="204" y="480">1</text><text x="204" y="500">0</text><text x="204" y="520">1</text><text x="204" y="540">0</text><text x="204" y="560">1</text><text x="204" y="580">0</text><text x="204" y="600">1</text><text x="204" y="620">0</text><text x="204" y="640">1</text><text x="204" y="660">0</text><text x="204" y="680">1</text><text x="204" y="700">0</text><text x="204" y="720">1</text><text x="204" y="740">0</text><text x="204" y="760">1</text></g><g class="binary-rise" style="animation-delay:-6s"><text x="242" y="-240">0</text><text x="242" y="-220">1</text><text x="242" y="-200">0</text><text x="242" y="-180">1</text><text x="242" y="-160">0</text><text x="242" y="-140">1</text><text x="242" y="-120">0</text><text x="242" y="-100">1</text><text x="242" y="-80">0</text><text x="242" y="-60">1</text><text x="242" y="-40">0</text><text x="242" y="-20">1</text><text x="242" y="0">0</text><text x="242" y="20">1</text><text x="242" y="40">0</text><text x="242" y="60">1</text><text x="242" y="80">0</text><text x="242" y="100">1</text><text x="242" y="120">0</text><text x="242" y="140">1</text><text x="242" y="160">0</text><text x="242" y="180">1</text><text x="242" y="200">0</text><text x="242" y="220">1</text><text x="242" y="240">0</text><text x="242" y="260">1</text><text x="242" y="280">0</text><text x="242" y="300">1</text><text x="242" y="320">0</text><text x="242" y="340">1</text><text x="242" y="360">0</text><text x="242" y="380">1</text><text x="242" y="400">0</text><text x="242" y="420">1</text><text x="242" y="440">0</text><text x="242" y="460">1</text><text x="242" y="480">0</text><text x="242" y="500">1</text><text x="242" y="520">0</text><text x="242" y="540">1</text><text x="242" y="560">0</text><text x="242" y="580">1</text><text x="242" y="600">0</text><text x="242" y="620">1</text><text x="242" y="640">0</text><text x="242" y="660">1</text><text x="242" y="680">0</text><text x="242" y="700">1</text><text x="242" y="720">0</text><text x="242" y="740">1</text><text x="242" y="760">0</text></g><g class="binary-rise" style="animation-delay:-7s"><text x="280" y="-240">1</text><text x="280" y="-220">0</text><text x="280" y="-200">1</text><text x="280" y="-180">0</text><text x="280" y="-160">1</text><text x="280" y="-140">0</text><text x="280" y="-120">1</text><text x="280" y="-100">0</text><text x="280" y="-80">1</text><text x="280" y="-60">0</text><text x="280" y="-40">1</text><text x="280" y="-20">0</text><text x="280" y="0">1</text><text x="280" y="20">0</text><text x="280" y="40">1</text><text x="280" y="60">0</text><text x="280" y="80">1</text><text x="280" y="100">0</text><text x="280" y="120">1</text><text x="280" y="140">0</text><text x="280" y="160">1</text><text x="280" y="180">0</text><text x="280" y="200">1</text><text x="280" y="220">0</text><text x="280" y="240">1</text><text x="280" y="260">0</text><text x="280" y="280">1</text><text x="280" y="300">0</text><text x="280" y="320">1</text><text x="280" y="340">0</text><text x="280" y="360">1</text><text x="280" y="380">0</text><text x="280" y="400">1</text><text x="280" y="420">0</text><text x="280" y="440">1</text><text x="280" y="460">0</text><text x="280" y="480">1</text><text x="280" y="500">0</text><text x="280" y="520">1</text><text x="280" y="540">0</text><text x="280" y="560">1</text><text x="280" y="580">0</text><text x="280" y="600">1</text><text x="280" y="620">0</text><text x="280" y="640">1</text><text x="280" y="660">0</text><text x="280" y="680">1</text><text x="280" y="700">0</text><text x="280" y="720">1</text><text x="280" y="740">0</text><text x="280" y="760">1</text></g><g class="binary-rise" style="animation-delay:-8s"><text x="318" y="-240">0</text><text x="318" y="-220">1</text><text x="318" y="-200">0</text><text x="318" y="-180">1</text><text x="318" y="-160">0</text><text x="318" y="-140">1</text><text x="318" y="-120">0</text><text x="318" y="-100">1</text><text x="318" y="-80">0</text><text x="318" y="-60">1</text><text x="318" y="-40">0</text><text x="318" y="-20">1</text><text x="318" y="0">0</text><text x="318" y="20">1</text><text x="318" y="40">0</text><text x="318" y="60">1</text><text x="318" y="80">0</text><text x="318" y="100">1</text><text x="318" y="120">0</text><text x="318" y="140">1</text><text x="318" y="160">0</text><text x="318" y="180">1</text><text x="318" y="200">0</text><text x="318" y="220">1</text><text x="318" y="240">0</text><text x="318" y="260">1</text><text x="318" y="280">0</text><text x="318" y="300">1</text><text x="318" y="320">0</text><text x="318" y="340">1</text><text x="318" y="360">0</text><text x="318" y="380">1</text><text x="318" y="400">0</text><text x="318" y="420">1</text><text x="318" y="440">0</text><text x="318" y="460">1</text><text x="318" y="480">0</text><text x="318" y="500">1</text><text x="318" y="520">0</text><text x="318" y="540">1</text><text x="318" y="560">0</text><text x="318" y="580">1</text><text x="318" y="600">0</text><text x="318" y="620">1</text><text x="318" y="640">0</text><text x="318" y="660">1</text><text x="318" y="680">0</text><text x="318" y="700">1</text><text x="318" y="720">0</text><text x="318" y="740">1</text><text x="318" y="760">0</text></g><g class="binary-rise" style="animation-delay:-9s"><text x="356" y="-240">1</text><text x="356" y="-220">0</text><text x="356" y="-200">1</text><text x="356" y="-180">0</text><text x="356" y="-160">1</text><text x="356" y="-140">0</text><text x="356" y="-120">1</text><text x="356" y="-100">0</text><text x="356" y="-80">1</text><text x="356" y="-60">0</text><text x="356" y="-40">1</text><text x="356" y="-20">0</text><text x="356" y="0">1</text><text x="356" y="20">0</text><text x="356" y="40">1</text><text x="356" y="60">0</text><text x="356" y="80">1</text><text x="356" y="100">0</text><text x="356" y="120">1</text><text x="356" y="140">0</text><text x="356" y="160">1</text><text x="356" y="180">0</text><text x="356" y="200">1</text><text x="356" y="220">0</text><text x="356" y="240">1</text><text x="356" y="260">0</text><text x="356" y="280">1</text><text x="356" y="300">0</text><text x="356" y="320">1</text><text x="356" y="340">0</text><text x="356" y="360">1</text><text x="356" y="380">0</text><text x="356" y="400">1</text><text x="356" y="420">0</text><text x="356" y="440">1</text><text x="356" y="460">0</text><text x="356" y="480">1</text><text x="356" y="500">0</text><text x="356" y="520">1</text><text x="356" y="540">0</text><text x="356" y="560">1</text><text x="356" y="580">0</text><text x="356" y="600">1</text><text x="356" y="620">0</text><text x="356" y="640">1</text><text x="356" y="660">0</text><text x="356" y="680">1</text><text x="356" y="700">0</text><text x="356" y="720">1</text><text x="356" y="740">0</text><text x="356" y="760">1</text></g><g class="binary-rise" style="animation-delay:-10s"><text x="394" y="-240">0</text><text x="394" y="-220">1</text><text x="394" y="-200">0</text><text x="394" y="-180">1</text><text x="394" y="-160">0</text><text x="394" y="-140">1</text><text x="394" y="-120">0</text><text x="394" y="-100">1</text><text x="394" y="-80">0</text><text x="394" y="-60">1</text><text x="394" y="-40">0</text><text x="394" y="-20">1</text><text x="394" y="0">0</text><text x="394" y="20">1</text><text x="394" y="40">0</text><text x="394" y="60">1</text><text x="394" y="80">0</text><text x="394" y="100">1</text><text x="394" y="120">0</text><text x="394" y="140">1</text><text x="394" y="160">0</text><text x="394" y="180">1</text><text x="394" y="200">0</text><text x="394" y="220">1</text><text x="394" y="240">0</text><text x="394" y="260">1</text><text x="394" y="280">0</text><text x="394" y="300">1</text><text x="394" y="320">0</text><text x="394" y="340">1</text><text x="394" y="360">0</text><text x="394" y="380">1</text><text x="394" y="400">0</text><text x="394" y="420">1</text><text x="394" y="440">0</text><text x="394" y="460">1</text><text x="394" y="480">0</text><text x="394" y="500">1</text><text x="394" y="520">0</text><text x="394" y="540">1</text><text x="394" y="560">0</text><text x="394" y="580">1</text><text x="394" y="600">0</text><text x="394" y="620">1</text><text x="394" y="640">0</text><text x="394" y="660">1</text><text x="394" y="680">0</text><text x="394" y="700">1</text><text x="394" y="720">0</text><text x="394" y="740">1</text><text x="394" y="760">0</text></g><g class="binary-rise" style="animation-delay:-11s"><text x="432" y="-240">1</text><text x="432" y="-220">0</text><text x="432" y="-200">1</text><text x="432" y="-180">0</text><text x="432" y="-160">1</text><text x="432" y="-140">0</text><text x="432" y="-120">1</text><text x="432" y="-100">0</text><text x="432" y="-80">1</text><text x="432" y="-60">0</text><text x="432" y="-40">1</text><text x="432" y="-20">0</text><text x="432" y="0">1</text><text x="432" y="20">0</text><text x="432" y="40">1</text><text x="432" y="60">0</text><text x="432" y="80">1</text><text x="432" y="100">0</text><text x="432" y="120">1</text><text x="432" y="140">0</text><text x="432" y="160">1</text><text x="432" y="180">0</text><text x="432" y="200">1</text><text x="432" y="220">0</text><text x="432" y="240">1</text><text x="432" y="260">0</text><text x="432" y="280">1</text><text x="432" y="300">0</text><text x="432" y="320">1</text><text x="432" y="340">0</text><text x="432" y="360">1</text><text x="432" y="380">0</text><text x="432" y="400">1</text><text x="432" y="420">0</text><text x="432" y="440">1</text><text x="432" y="460">0</text><text x="432" y="480">1</text><text x="432" y="500">0</text><text x="432" y="520">1</text><text x="432" y="540">0</text><text x="432" y="560">1</text><text x="432" y="580">0</text><text x="432" y="600">1</text><text x="432" y="620">0</text><text x="432" y="640">1</text><text x="432" y="660">0</text><text x="432" y="680">1</text><text x="432" y="700">0</text><text x="432" y="720">1</text><text x="432" y="740">0</text><text x="432" y="760">1</text></g><g class="binary-rise" style="animation-delay:-12s"><text x="470" y="-240">0</text><text x="470" y="-220">1</text><text x="470" y="-200">0</text><text x="470" y="-180">1</text><text x="470" y="-160">0</text><text x="470" y="-140">1</text><text x="470" y="-120">0</text><text x="470" y="-100">1</text><text x="470" y="-80">0</text><text x="470" y="-60">1</text><text x="470" y="-40">0</text><text x="470" y="-20">1</text><text x="470" y="0">0</text><text x="470" y="20">1</text><text x="470" y="40">0</text><text x="470" y="60">1</text><text x="470" y="80">0</text><text x="470" y="100">1</text><text x="470" y="120">0</text><text x="470" y="140">1</text><text x="470" y="160">0</text><text x="470" y="180">1</text><text x="470" y="200">0</text><text x="470" y="220">1</text><text x="470" y="240">0</text><text x="470" y="260">1</text><text x="470" y="280">0</text><text x="470" y="300">1</text><text x="470" y="320">0</text><text x="470" y="340">1</text><text x="470" y="360">0</text><text x="470" y="380">1</text><text x="470" y="400">0</text><text x="470" y="420">1</text><text x="470" y="440">0</text><text x="470" y="460">1</text><text x="470" y="480">0</text><text x="470" y="500">1</text><text x="470" y="520">0</text><text x="470" y="540">1</text><text x="470" y="560">0</text><text x="470" y="580">1</text><text x="470" y="600">0</text><text x="470" y="620">1</text><text x="470" y="640">0</text><text x="470" y="660">1</text><text x="470" y="680">0</text><text x="470" y="700">1</text><text x="470" y="720">0</text><text x="470" y="740">1</text><text x="470" y="760">0</text></g><g class="binary-rise" style="animation-delay:-13s"><text x="508" y="-240">1</text><text x="508" y="-220">0</text><text x="508" y="-200">1</text><text x="508" y="-180">0</text><text x="508" y="-160">1</text><text x="508" y="-140">0</text><text x="508" y="-120">1</text><text x="508" y="-100">0</text><text x="508" y="-80">1</text><text x="508" y="-60">0</text><text x="508" y="-40">1</text><text x="508" y="-20">0</text><text x="508" y="0">1</text><text x="508" y="20">0</text><text x="508" y="40">1</text><text x="508" y="60">0</text><text x="508" y="80">1</text><text x="508" y="100">0</text><text x="508" y="120">1</text><text x="508" y="140">0</text><text x="508" y="160">1</text><text x="508" y="180">0</text><text x="508" y="200">1</text><text x="508" y="220">0</text><text x="508" y="240">1</text><text x="508" y="260">0</text><text x="508" y="280">1</text><text x="508" y="300">0</text><text x="508" y="320">1</text><text x="508" y="340">0</text><text x="508" y="360">1</text><text x="508" y="380">0</text><text x="508" y="400">1</text><text x="508" y="420">0</text><text x="508" y="440">1</text><text x="508" y="460">0</text><text x="508" y="480">1</text><text x="508" y="500">0</text><text x="508" y="520">1</text><text x="508" y="540">0</text><text x="508" y="560">1</text><text x="508" y="580">0</text><text x="508" y="600">1</text><text x="508" y="620">0</text><text x="508" y="640">1</text><text x="508" y="660">0</text><text x="508" y="680">1</text><text x="508" y="700">0</text><text x="508" y="720">1</text><text x="508" y="740">0</text><text x="508" y="760">1</text></g><g class="binary-rise" style="animation-delay:-14s"><text x="546" y="-240">0</text><text x="546" y="-220">1</text><text x="546" y="-200">0</text><text x="546" y="-180">1</text><text x="546" y="-160">0</text><text x="546" y="-140">1</text><text x="546" y="-120">0</text><text x="546" y="-100">1</text><text x="546" y="-80">0</text><text x="546" y="-60">1</text><text x="546" y="-40">0</text><text x="546" y="-20">1</text><text x="546" y="0">0</text><text x="546" y="20">1</text><text x="546" y="40">0</text><text x="546" y="60">1</text><text x="546" y="80">0</text><text x="546" y="100">1</text><text x="546" y="120">0</text><text x="546" y="140">1</text><text x="546" y="160">0</text><text x="546" y="180">1</text><text x="546" y="200">0</text><text x="546" y="220">1</text><text x="546" y="240">0</text><text x="546" y="260">1</text><text x="546" y="280">0</text><text x="546" y="300">1</text><text x="546" y="320">0</text><text x="546" y="340">1</text><text x="546" y="360">0</text><text x="546" y="380">1</text><text x="546" y="400">0</text><text x="546" y="420">1</text><text x="546" y="440">0</text><text x="546" y="460">1</text><text x="546" y="480">0</text><text x="546" y="500">1</text><text x="546" y="520">0</text><text x="546" y="540">1</text><text x="546" y="560">0</text><text x="546" y="580">1</text><text x="546" y="600">0</text><text x="546" y="620">1</text><text x="546" y="640">0</text><text x="546" y="660">1</text><text x="546" y="680">0</text><text x="546" y="700">1</text><text x="546" y="720">0</text><text x="546" y="740">1</text><text x="546" y="760">0</text></g><g class="binary-rise" style="animation-delay:-15s"><text x="584" y="-240">1</text><text x="584" y="-220">0</text><text x="584" y="-200">1</text><text x="584" y="-180">0</text><text x="584" y="-160">1</text><text x="584" y="-140">0</text><text x="584" y="-120">1</text><text x="584" y="-100">0</text><text x="584" y="-80">1</text><text x="584" y="-60">0</text><text x="584" y="-40">1</text><text x="584" y="-20">0</text><text x="584" y="0">1</text><text x="584" y="20">0</text><text x="584" y="40">1</text><text x="584" y="60">0</text><text x="584" y="80">1</text><text x="584" y="100">0</text><text x="584" y="120">1</text><text x="584" y="140">0</text><text x="584" y="160">1</text><text x="584" y="180">0</text><text x="584" y="200">1</text><text x="584" y="220">0</text><text x="584" y="240">1</text><text x="584" y="260">0</text><text x="584" y="280">1</text><text x="584" y="300">0</text><text x="584" y="320">1</text><text x="584" y="340">0</text><text x="584" y="360">1</text><text x="584" y="380">0</text><text x="584" y="400">1</text><text x="584" y="420">0</text><text x="584" y="440">1</text><text x="584" y="460">0</text><text x="584" y="480">1</text><text x="584" y="500">0</text><text x="584" y="520">1</text><text x="584" y="540">0</text><text x="584" y="560">1</text><text x="584" y="580">0</text><text x="584" y="600">1</text><text x="584" y="620">0</text><text x="584" y="640">1</text><text x="584" y="660">0</text><text x="584" y="680">1</text><text x="584" y="700">0</text><text x="584" y="720">1</text><text x="584" y="740">0</text><text x="584" y="760">1</text></g><g class="binary-rise" style="animation-delay:-0s"><text x="622" y="-240">0</text><text x="622" y="-220">1</text><text x="622" y="-200">0</text><text x="622" y="-180">1</text><text x="622" y="-160">0</text><text x="622" y="-140">1</text><text x="622" y="-120">0</text><text x="622" y="-100">1</text><text x="622" y="-80">0</text><text x="622" y="-60">1</text><text x="622" y="-40">0</text><text x="622" y="-20">1</text><text x="622" y="0">0</text><text x="622" y="20">1</text><text x="622" y="40">0</text><text x="622" y="60">1</text><text x="622" y="80">0</text><text x="622" y="100">1</text><text x="622" y="120">0</text><text x="622" y="140">1</text><text x="622" y="160">0</text><text x="622" y="180">1</text><text x="622" y="200">0</text><text x="622" y="220">1</text><text x="622" y="240">0</text><text x="622" y="260">1</text><text x="622" y="280">0</text><text x="622" y="300">1</text><text x="622" y="320">0</text><text x="622" y="340">1</text><text x="622" y="360">0</text><text x="622" y="380">1</text><text x="622" y="400">0</text><text x="622" y="420">1</text><text x="622" y="440">0</text><text x="622" y="460">1</text><text x="622" y="480">0</text><text x="622" y="500">1</text><text x="622" y="520">0</text><text x="622" y="540">1</text><text x="622" y="560">0</text><text x="622" y="580">1</text><text x="622" y="600">0</text><text x="622" y="620">1</text><text x="622" y="640">0</text><text x="622" y="660">1</text><text x="622" y="680">0</text><text x="622" y="700">1</text><text x="622" y="720">0</text><text x="622" y="740">1</text><text x="622" y="760">0</text></g><g class="binary-rise" style="animation-delay:-1s"><text x="660" y="-240">1</text><text x="660" y="-220">0</text><text x="660" y="-200">1</text><text x="660" y="-180">0</text><text x="660" y="-160">1</text><text x="660" y="-140">0</text><text x="660" y="-120">1</text><text x="660" y="-100">0</text><text x="660" y="-80">1</text><text x="660" y="-60">0</text><text x="660" y="-40">1</text><text x="660" y="-20">0</text><text x="660" y="0">1</text><text x="660" y="20">0</text><text x="660" y="40">1</text><text x="660" y="60">0</text><text x="660" y="80">1</text><text x="660" y="100">0</text><text x="660" y="120">1</text><text x="660" y="140">0</text><text x="660" y="160">1</text><text x="660" y="180">0</text><text x="660" y="200">1</text><text x="660" y="220">0</text><text x="660" y="240">1</text><text x="660" y="260">0</text><text x="660" y="280">1</text><text x="660" y="300">0</text><text x="660" y="320">1</text><text x="660" y="340">0</text><text x="660" y="360">1</text><text x="660" y="380">0</text><text x="660" y="400">1</text><text x="660" y="420">0</text><text x="660" y="440">1</text><text x="660" y="460">0</text><text x="660" y="480">1</text><text x="660" y="500">0</text><text x="660" y="520">1</text><text x="660" y="540">0</text><text x="660" y="560">1</text><text x="660" y="580">0</text><text x="660" y="600">1</text><text x="660" y="620">0</text><text x="660" y="640">1</text><text x="660" y="660">0</text><text x="660" y="680">1</text><text x="660" y="700">0</text><text x="660" y="720">1</text><text x="660" y="740">0</text><text x="660" y="760">1</text></g><g class="binary-rise" style="animation-delay:-2s"><text x="698" y="-240">0</text><text x="698" y="-220">1</text><text x="698" y="-200">0</text><text x="698" y="-180">1</text><text x="698" y="-160">0</text><text x="698" y="-140">1</text><text x="698" y="-120">0</text><text x="698" y="-100">1</text><text x="698" y="-80">0</text><text x="698" y="-60">1</text><text x="698" y="-40">0</text><text x="698" y="-20">1</text><text x="698" y="0">0</text><text x="698" y="20">1</text><text x="698" y="40">0</text><text x="698" y="60">1</text><text x="698" y="80">0</text><text x="698" y="100">1</text><text x="698" y="120">0</text><text x="698" y="140">1</text><text x="698" y="160">0</text><text x="698" y="180">1</text><text x="698" y="200">0</text><text x="698" y="220">1</text><text x="698" y="240">0</text><text x="698" y="260">1</text><text x="698" y="280">0</text><text x="698" y="300">1</text><text x="698" y="320">0</text><text x="698" y="340">1</text><text x="698" y="360">0</text><text x="698" y="380">1</text><text x="698" y="400">0</text><text x="698" y="420">1</text><text x="698" y="440">0</text><text x="698" y="460">1</text><text x="698" y="480">0</text><text x="698" y="500">1</text><text x="698" y="520">0</text><text x="698" y="540">1</text><text x="698" y="560">0</text><text x="698" y="580">1</text><text x="698" y="600">0</text><text x="698" y="620">1</text><text x="698" y="640">0</text><text x="698" y="660">1</text><text x="698" y="680">0</text><text x="698" y="700">1</text><text x="698" y="720">0</text><text x="698" y="740">1</text><text x="698" y="760">0</text></g><g class="binary-rise" style="animation-delay:-3s"><text x="736" y="-240">1</text><text x="736" y="-220">0</text><text x="736" y="-200">1</text><text x="736" y="-180">0</text><text x="736" y="-160">1</text><text x="736" y="-140">0</text><text x="736" y="-120">1</text><text x="736" y="-100">0</text><text x="736" y="-80">1</text><text x="736" y="-60">0</text><text x="736" y="-40">1</text><text x="736" y="-20">0</text><text x="736" y="0">1</text><text x="736" y="20">0</text><text x="736" y="40">1</text><text x="736" y="60">0</text><text x="736" y="80">1</text><text x="736" y="100">0</text><text x="736" y="120">1</text><text x="736" y="140">0</text><text x="736" y="160">1</text><text x="736" y="180">0</text><text x="736" y="200">1</text><text x="736" y="220">0</text><text x="736" y="240">1</text><text x="736" y="260">0</text><text x="736" y="280">1</text><text x="736" y="300">0</text><text x="736" y="320">1</text><text x="736" y="340">0</text><text x="736" y="360">1</text><text x="736" y="380">0</text><text x="736" y="400">1</text><text x="736" y="420">0</text><text x="736" y="440">1</text><text x="736" y="460">0</text><text x="736" y="480">1</text><text x="736" y="500">0</text><text x="736" y="520">1</text><text x="736" y="540">0</text><text x="736" y="560">1</text><text x="736" y="580">0</text><text x="736" y="600">1</text><text x="736" y="620">0</text><text x="736" y="640">1</text><text x="736" y="660">0</text><text x="736" y="680">1</text><text x="736" y="700">0</text><text x="736" y="720">1</text><text x="736" y="740">0</text><text x="736" y="760">1</text></g><g class="binary-rise" style="animation-delay:-4s"><text x="774" y="-240">0</text><text x="774" y="-220">1</text><text x="774" y="-200">0</text><text x="774" y="-180">1</text><text x="774" y="-160">0</text><text x="774" y="-140">1</text><text x="774" y="-120">0</text><text x="774" y="-100">1</text><text x="774" y="-80">0</text><text x="774" y="-60">1</text><text x="774" y="-40">0</text><text x="774" y="-20">1</text><text x="774" y="0">0</text><text x="774" y="20">1</text><text x="774" y="40">0</text><text x="774" y="60">1</text><text x="774" y="80">0</text><text x="774" y="100">1</text><text x="774" y="120">0</text><text x="774" y="140">1</text><text x="774" y="160">0</text><text x="774" y="180">1</text><text x="774" y="200">0</text><text x="774" y="220">1</text><text x="774" y="240">0</text><text x="774" y="260">1</text><text x="774" y="280">0</text><text x="774" y="300">1</text><text x="774" y="320">0</text><text x="774" y="340">1</text><text x="774" y="360">0</text><text x="774" y="380">1</text><text x="774" y="400">0</text><text x="774" y="420">1</text><text x="774" y="440">0</text><text x="774" y="460">1</text><text x="774" y="480">0</text><text x="774" y="500">1</text><text x="774" y="520">0</text><text x="774" y="540">1</text><text x="774" y="560">0</text><text x="774" y="580">1</text><text x="774" y="600">0</text><text x="774" y="620">1</text><text x="774" y="640">0</text><text x="774" y="660">1</text><text x="774" y="680">0</text><text x="774" y="700">1</text><text x="774" y="720">0</text><text x="774" y="740">1</text><text x="774" y="760">0</text></g><g class="binary-rise" style="animation-delay:-5s"><text x="812" y="-240">1</text><text x="812" y="-220">0</text><text x="812" y="-200">1</text><text x="812" y="-180">0</text><text x="812" y="-160">1</text><text x="812" y="-140">0</text><text x="812" y="-120">1</text><text x="812" y="-100">0</text><text x="812" y="-80">1</text><text x="812" y="-60">0</text><text x="812" y="-40">1</text><text x="812" y="-20">0</text><text x="812" y="0">1</text><text x="812" y="20">0</text><text x="812" y="40">1</text><text x="812" y="60">0</text><text x="812" y="80">1</text><text x="812" y="100">0</text><text x="812" y="120">1</text><text x="812" y="140">0</text><text x="812" y="160">1</text><text x="812" y="180">0</text><text x="812" y="200">1</text><text x="812" y="220">0</text><text x="812" y="240">1</text><text x="812" y="260">0</text><text x="812" y="280">1</text><text x="812" y="300">0</text><text x="812" y="320">1</text><text x="812" y="340">0</text><text x="812" y="360">1</text><text x="812" y="380">0</text><text x="812" y="400">1</text><text x="812" y="420">0</text><text x="812" y="440">1</text><text x="812" y="460">0</text><text x="812" y="480">1</text><text x="812" y="500">0</text><text x="812" y="520">1</text><text x="812" y="540">0</text><text x="812" y="560">1</text><text x="812" y="580">0</text><text x="812" y="600">1</text><text x="812" y="620">0</text><text x="812" y="640">1</text><text x="812" y="660">0</text><text x="812" y="680">1</text><text x="812" y="700">0</text><text x="812" y="720">1</text><text x="812" y="740">0</text><text x="812" y="760">1</text></g><g class="binary-rise" style="animation-delay:-6s"><text x="850" y="-240">0</text><text x="850" y="-220">1</text><text x="850" y="-200">0</text><text x="850" y="-180">1</text><text x="850" y="-160">0</text><text x="850" y="-140">1</text><text x="850" y="-120">0</text><text x="850" y="-100">1</text><text x="850" y="-80">0</text><text x="850" y="-60">1</text><text x="850" y="-40">0</text><text x="850" y="-20">1</text><text x="850" y="0">0</text><text x="850" y="20">1</text><text x="850" y="40">0</text><text x="850" y="60">1</text><text x="850" y="80">0</text><text x="850" y="100">1</text><text x="850" y="120">0</text><text x="850" y="140">1</text><text x="850" y="160">0</text><text x="850" y="180">1</text><text x="850" y="200">0</text><text x="850" y="220">1</text><text x="850" y="240">0</text><text x="850" y="260">1</text><text x="850" y="280">0</text><text x="850" y="300">1</text><text x="850" y="320">0</text><text x="850" y="340">1</text><text x="850" y="360">0</text><text x="850" y="380">1</text><text x="850" y="400">0</text><text x="850" y="420">1</text><text x="850" y="440">0</text><text x="850" y="460">1</text><text x="850" y="480">0</text><text x="850" y="500">1</text><text x="850" y="520">0</text><text x="850" y="540">1</text><text x="850" y="560">0</text><text x="850" y="580">1</text><text x="850" y="600">0</text><text x="850" y="620">1</text><text x="850" y="640">0</text><text x="850" y="660">1</text><text x="850" y="680">0</text><text x="850" y="700">1</text><text x="850" y="720">0</text><text x="850" y="740">1</text><text x="850" y="760">0</text></g><g class="binary-rise" style="animation-delay:-7s"><text x="888" y="-240">1</text><text x="888" y="-220">0</text><text x="888" y="-200">1</text><text x="888" y="-180">0</text><text x="888" y="-160">1</text><text x="888" y="-140">0</text><text x="888" y="-120">1</text><text x="888" y="-100">0</text><text x="888" y="-80">1</text><text x="888" y="-60">0</text><text x="888" y="-40">1</text><text x="888" y="-20">0</text><text x="888" y="0">1</text><text x="888" y="20">0</text><text x="888" y="40">1</text><text x="888" y="60">0</text><text x="888" y="80">1</text><text x="888" y="100">0</text><text x="888" y="120">1</text><text x="888" y="140">0</text><text x="888" y="160">1</text><text x="888" y="180">0</text><text x="888" y="200">1</text><text x="888" y="220">0</text><text x="888" y="240">1</text><text x="888" y="260">0</text><text x="888" y="280">1</text><text x="888" y="300">0</text><text x="888" y="320">1</text><text x="888" y="340">0</text><text x="888" y="360">1</text><text x="888" y="380">0</text><text x="888" y="400">1</text><text x="888" y="420">0</text><text x="888" y="440">1</text><text x="888" y="460">0</text><text x="888" y="480">1</text><text x="888" y="500">0</text><text x="888" y="520">1</text><text x="888" y="540">0</text><text x="888" y="560">1</text><text x="888" y="580">0</text><text x="888" y="600">1</text><text x="888" y="620">0</text><text x="888" y="640">1</text><text x="888" y="660">0</text><text x="888" y="680">1</text><text x="888" y="700">0</text><text x="888" y="720">1</text><text x="888" y="740">0</text><text x="888" y="760">1</text></g><g class="binary-rise" style="animation-delay:-8s"><text x="926" y="-240">0</text><text x="926" y="-220">1</text><text x="926" y="-200">0</text><text x="926" y="-180">1</text><text x="926" y="-160">0</text><text x="926" y="-140">1</text><text x="926" y="-120">0</text><text x="926" y="-100">1</text><text x="926" y="-80">0</text><text x="926" y="-60">1</text><text x="926" y="-40">0</text><text x="926" y="-20">1</text><text x="926" y="0">0</text><text x="926" y="20">1</text><text x="926" y="40">0</text><text x="926" y="60">1</text><text x="926" y="80">0</text><text x="926" y="100">1</text><text x="926" y="120">0</text><text x="926" y="140">1</text><text x="926" y="160">0</text><text x="926" y="180">1</text><text x="926" y="200">0</text><text x="926" y="220">1</text><text x="926" y="240">0</text><text x="926" y="260">1</text><text x="926" y="280">0</text><text x="926" y="300">1</text><text x="926" y="320">0</text><text x="926" y="340">1</text><text x="926" y="360">0</text><text x="926" y="380">1</text><text x="926" y="400">0</text><text x="926" y="420">1</text><text x="926" y="440">0</text><text x="926" y="460">1</text><text x="926" y="480">0</text><text x="926" y="500">1</text><text x="926" y="520">0</text><text x="926" y="540">1</text><text x="926" y="560">0</text><text x="926" y="580">1</text><text x="926" y="600">0</text><text x="926" y="620">1</text><text x="926" y="640">0</text><text x="926" y="660">1</text><text x="926" y="680">0</text><text x="926" y="700">1</text><text x="926" y="720">0</text><text x="926" y="740">1</text><text x="926" y="760">0</text></g><g class="binary-rise" style="animation-delay:-9s"><text x="964" y="-240">1</text><text x="964" y="-220">0</text><text x="964" y="-200">1</text><text x="964" y="-180">0</text><text x="964" y="-160">1</text><text x="964" y="-140">0</text><text x="964" y="-120">1</text><text x="964" y="-100">0</text><text x="964" y="-80">1</text><text x="964" y="-60">0</text><text x="964" y="-40">1</text><text x="964" y="-20">0</text><text x="964" y="0">1</text><text x="964" y="20">0</text><text x="964" y="40">1</text><text x="964" y="60">0</text><text x="964" y="80">1</text><text x="964" y="100">0</text><text x="964" y="120">1</text><text x="964" y="140">0</text><text x="964" y="160">1</text><text x="964" y="180">0</text><text x="964" y="200">1</text><text x="964" y="220">0</text><text x="964" y="240">1</text><text x="964" y="260">0</text><text x="964" y="280">1</text><text x="964" y="300">0</text><text x="964" y="320">1</text><text x="964" y="340">0</text><text x="964" y="360">1</text><text x="964" y="380">0</text><text x="964" y="400">1</text><text x="964" y="420">0</text><text x="964" y="440">1</text><text x="964" y="460">0</text><text x="964" y="480">1</text><text x="964" y="500">0</text><text x="964" y="520">1</text><text x="964" y="540">0</text><text x="964" y="560">1</text><text x="964" y="580">0</text><text x="964" y="600">1</text><text x="964" y="620">0</text><text x="964" y="640">1</text><text x="964" y="660">0</text><text x="964" y="680">1</text><text x="964" y="700">0</text><text x="964" y="720">1</text><text x="964" y="740">0</text><text x="964" y="760">1</text></g><g class="binary-rise" style="animation-delay:-10s"><text x="1002" y="-240">0</text><text x="1002" y="-220">1</text><text x="1002" y="-200">0</text><text x="1002" y="-180">1</text><text x="1002" y="-160">0</text><text x="1002" y="-140">1</text><text x="1002" y="-120">0</text><text x="1002" y="-100">1</text><text x="1002" y="-80">0</text><text x="1002" y="-60">1</text><text x="1002" y="-40">0</text><text x="1002" y="-20">1</text><text x="1002" y="0">0</text><text x="1002" y="20">1</text><text x="1002" y="40">0</text><text x="1002" y="60">1</text><text x="1002" y="80">0</text><text x="1002" y="100">1</text><text x="1002" y="120">0</text><text x="1002" y="140">1</text><text x="1002" y="160">0</text><text x="1002" y="180">1</text><text x="1002" y="200">0</text><text x="1002" y="220">1</text><text x="1002" y="240">0</text><text x="1002" y="260">1</text><text x="1002" y="280">0</text><text x="1002" y="300">1</text><text x="1002" y="320">0</text><text x="1002" y="340">1</text><text x="1002" y="360">0</text><text x="1002" y="380">1</text><text x="1002" y="400">0</text><text x="1002" y="420">1</text><text x="1002" y="440">0</text><text x="1002" y="460">1</text><text x="1002" y="480">0</text><text x="1002" y="500">1</text><text x="1002" y="520">0</text><text x="1002" y="540">1</text><text x="1002" y="560">0</text><text x="1002" y="580">1</text><text x="1002" y="600">0</text><text x="1002" y="620">1</text><text x="1002" y="640">0</text><text x="1002" y="660">1</text><text x="1002" y="680">0</text><text x="1002" y="700">1</text><text x="1002" y="720">0</text><text x="1002" y="740">1</text><text x="1002" y="760">0</text></g><g class="binary-rise" style="animation-delay:-11s"><text x="1040" y="-240">1</text><text x="1040" y="-220">0</text><text x="1040" y="-200">1</text><text x="1040" y="-180">0</text><text x="1040" y="-160">1</text><text x="1040" y="-140">0</text><text x="1040" y="-120">1</text><text x="1040" y="-100">0</text><text x="1040" y="-80">1</text><text x="1040" y="-60">0</text><text x="1040" y="-40">1</text><text x="1040" y="-20">0</text><text x="1040" y="0">1</text><text x="1040" y="20">0</text><text x="1040" y="40">1</text><text x="1040" y="60">0</text><text x="1040" y="80">1</text><text x="1040" y="100">0</text><text x="1040" y="120">1</text><text x="1040" y="140">0</text><text x="1040" y="160">1</text><text x="1040" y="180">0</text><text x="1040" y="200">1</text><text x="1040" y="220">0</text><text x="1040" y="240">1</text><text x="1040" y="260">0</text><text x="1040" y="280">1</text><text x="1040" y="300">0</text><text x="1040" y="320">1</text><text x="1040" y="340">0</text><text x="1040" y="360">1</text><text x="1040" y="380">0</text><text x="1040" y="400">1</text><text x="1040" y="420">0</text><text x="1040" y="440">1</text><text x="1040" y="460">0</text><text x="1040" y="480">1</text><text x="1040" y="500">0</text><text x="1040" y="520">1</text><text x="1040" y="540">0</text><text x="1040" y="560">1</text><text x="1040" y="580">0</text><text x="1040" y="600">1</text><text x="1040" y="620">0</text><text x="1040" y="640">1</text><text x="1040" y="660">0</text><text x="1040" y="680">1</text><text x="1040" y="700">0</text><text x="1040" y="720">1</text><text x="1040" y="740">0</text><text x="1040" y="760">1</text></g><g class="binary-rise" style="animation-delay:-12s"><text x="1078" y="-240">0</text><text x="1078" y="-220">1</text><text x="1078" y="-200">0</text><text x="1078" y="-180">1</text><text x="1078" y="-160">0</text><text x="1078" y="-140">1</text><text x="1078" y="-120">0</text><text x="1078" y="-100">1</text><text x="1078" y="-80">0</text><text x="1078" y="-60">1</text><text x="1078" y="-40">0</text><text x="1078" y="-20">1</text><text x="1078" y="0">0</text><text x="1078" y="20">1</text><text x="1078" y="40">0</text><text x="1078" y="60">1</text><text x="1078" y="80">0</text><text x="1078" y="100">1</text><text x="1078" y="120">0</text><text x="1078" y="140">1</text><text x="1078" y="160">0</text><text x="1078" y="180">1</text><text x="1078" y="200">0</text><text x="1078" y="220">1</text><text x="1078" y="240">0</text><text x="1078" y="260">1</text><text x="1078" y="280">0</text><text x="1078" y="300">1</text><text x="1078" y="320">0</text><text x="1078" y="340">1</text><text x="1078" y="360">0</text><text x="1078" y="380">1</text><text x="1078" y="400">0</text><text x="1078" y="420">1</text><text x="1078" y="440">0</text><text x="1078" y="460">1</text><text x="1078" y="480">0</text><text x="1078" y="500">1</text><text x="1078" y="520">0</text><text x="1078" y="540">1</text><text x="1078" y="560">0</text><text x="1078" y="580">1</text><text x="1078" y="600">0</text><text x="1078" y="620">1</text><text x="1078" y="640">0</text><text x="1078" y="660">1</text><text x="1078" y="680">0</text><text x="1078" y="700">1</text><text x="1078" y="720">0</text><text x="1078" y="740">1</text><text x="1078" y="760">0</text></g></g><rect width="1100" height="290" fill="url(#g)"/><path d="M23 59V23h48M1029 23h48v36M23 231v36h48M1029 267h48v-36" fill="none" stroke="#32e64f"/><g fill="none" stroke="#32e64f"><circle cx="949" cy="141" r="77" opacity=".5"/><circle cx="949" cy="141" r="94" stroke-dasharray="3 8" opacity=".25"/><path d="M863 225l172-169" opacity=".3"/></g><g font-family="Consolas,monospace"><text x="52" y="56" fill="#32e64f" font-size="14" letter-spacing="2">PORTAL 01 / PROJETO FREELANCE</text><text x="48" y="126" fill="#e6eee8" font-family="Arial,sans-serif" font-size="47" font-weight="700">Nutricomp</text><text x="52" y="170" fill="#a4b5a8" font-size="19">Cardápio digital e pedidos para WhatsApp</text><text x="52" y="232" fill="#32e64f" font-size="14">REACT / TYPESCRIPT / TAILWIND</text><text x="903" y="160" font-size="59" fill="#32e64f">01</text><text x="895" y="253" fill="#32e64f" font-size="14">EXPLORAR ↗</text></g></svg>